<svg xmlns="http://www.w3.org/2000/svg" width="72" height="72" viewBox="0 0 72 72"><defs><style>.a{fill:#b4ff00;}</style></defs><g transform="translate(0 0.003)"><g transform="translate(57 53.995)"><circle class="a" cx="7.5" cy="7.5" r="7.5" transform="translate(0 0.002)"/></g><path class="a" d="M321.206,208.981v-1.6a21.17,21.17,0,0,0-3.342-11.7,21.929,21.929,0,0,0-9.3-7.95,31.1,31.1,0,0,0-13.3-2.751,33.98,33.98,0,0,0-13.3,2.518,21.481,21.481,0,0,0-9.39,7.227,18.113,18.113,0,0,0-3.342,10.694c0,7.613,4.085,13.708,12.14,18.117a70.423,70.423,0,0,0,11.431,4.673c4.465,1.464,7.555,2.841,9.183,4.091a5.175,5.175,0,0,1,1.972,4.464,4.614,4.614,0,0,1-1.941,4.031,10.82,10.82,0,0,1-6.439,1.629c-9.975,0-10.374-5.529-10.374-9.449v-1.5h-18v1.82a21.809,21.809,0,0,0,3.583,12.364,23.774,23.774,0,0,0,10.258,8.347,35.085,35.085,0,0,0,14.533,2.968c7.642,0,13.849-1.777,18.45-5.28,4.762-3.627,7.177-8.681,7.177-15.022a19.361,19.361,0,0,0-5.827-14.3c-3.711-3.663-9.618-6.75-17.554-9.165a34.554,34.554,0,0,1-8.986-3.87c-2.155-1.465-2.4-2.914-2.4-3.878a4.837,4.837,0,0,1,2.021-4.1c1.493-1.154,3.709-1.739,6.583-1.739,2.944,0,5.216.7,6.75,2.066,1.489,1.329,1.414,3.19,1.414,5.693v1.6Z" transform="translate(-267.206 -184.983)"/></g></svg>